<?xml version="1.0" encoding="utf-8"?>
<!-- Generator: Adobe Illustrator 24.1.1, SVG Export Plug-In . SVG Version: 6.00 Build 0)  -->
<svg version="1.1" id="Ebene_1" xmlns="http://www.w3.org/2000/svg" xmlns:xlink="http://www.w3.org/1999/xlink" x="0px" y="0px"
	 viewBox="0 0 128 128" style="enable-background:new 0 0 128 128;" xml:space="preserve">
<style type="text/css">
	.st0{fill:#FFFFFF;}
</style>
<g>
	<path class="st0" d="M120.95,43.09L71.05,6.84c-4.21-3.06-9.9-3.06-14.11,0L7.05,43.09c-4.21,3.06-5.97,8.47-4.36,13.42
		l19.06,58.65c1.61,4.94,6.21,8.29,11.41,8.29h61.67c5.2,0,9.81-3.35,11.41-8.29l19.06-58.65
		C126.91,51.56,125.15,46.15,120.95,43.09z M56.9,56.51H37.76v9.96h17.22v7.68H37.76v9.96H56.9v7.68H29.66V48.83H56.9V56.51z
		 M90.26,91.79L80.9,76.31h-0.48l-9.36,15.48H60.98l14.1-22.44L62.06,48.83h10.02l8.34,14.04h0.48l8.34-14.04h10.02L86.24,69.35
		l14.1,22.44H90.26z"/>
</g>
</svg>
