<?xml version="1.0" encoding="utf-8"?>
<!-- Generator: Adobe Illustrator 24.1.1, SVG Export Plug-In . SVG Version: 6.00 Build 0)  -->
<svg version="1.1" id="Ebene_1" xmlns="http://www.w3.org/2000/svg" xmlns:xlink="http://www.w3.org/1999/xlink" x="0px" y="0px"
	 viewBox="0 0 128 128" style="enable-background:new 0 0 128 128;" xml:space="preserve">
<style type="text/css">
	.st0{fill:#FFFFFF;}
</style>
<g>
	<g>
		<path class="st0" d="M113.43,28.35L70,3.27c-3.71-2.14-8.29-2.14-12,0L14.57,28.35c-3.71,2.14-6,6.11-6,10.39v50.14
			c0,4.29,2.29,8.25,6,10.39L58,124.35c3.71,2.14,8.29,2.14,12,0l43.43-25.07c3.71-2.14,6-6.11,6-10.39V38.74
			C119.43,34.45,117.14,30.49,113.43,28.35z M52.66,85.29L43.3,69.81h-0.48l-9.36,15.48H23.38l14.1-22.44L24.46,42.33h10.02
			l8.34,14.04h0.48l8.34-14.04h10.02L48.64,62.85l14.1,22.44H52.66z M103.09,72.57c-1.02,2.64-2.49,4.9-4.41,6.78
			c-1.92,1.88-4.24,3.34-6.96,4.38s-5.78,1.56-9.18,1.56H68.02V42.33h14.52c3.4,0,6.46,0.52,9.18,1.56s5.04,2.51,6.96,4.41
			s3.39,4.17,4.41,6.81c1.02,2.64,1.53,5.54,1.53,8.7C104.62,67.01,104.11,69.93,103.09,72.57z"/>
	</g>
	<g>
		<path class="st0" d="M92.92,53.79c-1.2-1.2-2.7-2.13-4.5-2.79s-3.88-0.99-6.24-0.99h-6.06v27.6h6.06c2.36,0,4.44-0.33,6.24-0.99
			s3.3-1.59,4.5-2.79s2.1-2.65,2.7-4.35s0.9-3.59,0.9-5.67s-0.3-3.97-0.9-5.67S94.12,54.99,92.92,53.79z"/>
	</g>
</g>
</svg>
